<?xml version="1.0" encoding="UTF-8"?>
<svg version="1.1" xmlns="http://www.w3.org/2000/svg" width="500" height="500">
<path d="M0 0 C0.7940625 0.48984375 1.588125 0.9796875 2.40625 1.484375 C3.36144531 2.0309375 4.31664062 2.5775 5.30078125 3.140625 C6.26371094 3.7490625 7.22664062 4.3575 8.21875 4.984375 C9.19457031 5.5928125 10.17039062 6.20125 11.17578125 6.828125 C11.91183594 7.3746875 12.64789063 7.92125 13.40625 8.484375 C13.40625 9.144375 13.40625 9.804375 13.40625 10.484375 C13.91671875 10.57589844 14.4271875 10.66742188 14.953125 10.76171875 C18.39138843 11.77458298 21.47959465 13.41657932 24.65625 15.046875 C25.63078125 15.5409082 25.63078125 15.5409082 26.625 16.04492188 C28.22059294 16.85445065 29.81367483 17.66892542 31.40625 18.484375 C31.40625 19.144375 31.40625 19.804375 31.40625 20.484375 C33.43728161 21.16064886 35.46834473 21.83682816 37.49951172 22.51269531 C39.55723274 23.20056107 41.61340021 23.89308234 43.66845703 24.58886719 C69.04241697 33.15724108 93.68970845 38.74797412 120.40625 41.484375 C121.04620127 101.90069806 119.52626718 166.61728187 77.40625 214.484375 C75.7508909 216.16227303 74.0850767 217.82995774 72.40625 219.484375 C71.890625 220.03480469 71.375 220.58523438 70.84375 221.15234375 C54.57936021 238.34486448 31.23646017 251.77120034 9.9765625 261.7890625 C6.54567548 263.35226559 6.54567548 263.35226559 3.9609375 264.9296875 C1.50705238 266.18928633 0.17835614 266.61300073 -2.59375 266.484375 C-7.50022482 264.63563697 -11.95090918 262.21931127 -16.50292969 259.63525391 C-18.45615972 258.5601107 -20.42266105 257.58887189 -22.4453125 256.65234375 C-61.4957029 238.51859924 -94.14801197 207.11116527 -109.1953125 166.42578125 C-109.66370004 165.11277669 -110.12978302 163.79894812 -110.59375 162.484375 C-110.9664502 161.46126221 -110.9664502 161.46126221 -111.34667969 160.41748047 C-124.79487181 122.79151835 -123.9810274 80.86750716 -123.59375 41.484375 C-122.78558838 41.39462402 -121.97742676 41.30487305 -121.14477539 41.21240234 C-87.21999761 37.36063896 -52.02357961 31.18892818 -22.78125 12.484375 C-19.59375 10.484375 -19.59375 10.484375 -16.59375 10.484375 C-16.59375 9.824375 -16.59375 9.164375 -16.59375 8.484375 C-14.3967403 6.78384787 -12.22551799 5.24966098 -9.90625 3.734375 C-8.96749023 3.07888672 -8.96749023 3.07888672 -8.00976562 2.41015625 C-3.32465044 -0.66092449 -3.32465044 -0.66092449 0 0 Z M-8.15625 33.984375 C-31.68566622 48.71646216 -58.75833976 56.5300556 -85.78710938 61.91796875 C-89.73640953 62.71497435 -93.66398702 63.59647876 -97.59375 64.484375 C-98.62796621 100.64363795 -95.35796177 138.91180563 -78.59375 171.484375 C-78.0265625 172.62648437 -77.459375 173.76859375 -76.875 174.9453125 C-71.11679944 186.17380359 -63.60363753 194.75386383 -54.59375 203.484375 C-53.789375 204.33 -52.985 205.175625 -52.15625 206.046875 C-40.47187327 217.16128214 -26.71454146 225.90459006 -12.52490234 233.44775391 C-11.17228661 234.17382298 -9.83495907 234.9287665 -8.51025391 235.70458984 C-4.51967163 238.06235755 -4.51967163 238.06235755 -0.0703125 237.96484375 C0.74695313 237.47628906 1.56421875 236.98773438 2.40625 236.484375 C3.59476562 235.92363281 4.78328125 235.36289062 6.0078125 234.78515625 C14.13464012 230.80036965 21.91272845 226.5888267 29.40625 221.484375 C30.66501953 220.63746094 30.66501953 220.63746094 31.94921875 219.7734375 C41.59204603 213.16548454 50.37052229 205.98572432 58.40625 197.484375 C59.02371094 196.83726562 59.64117187 196.19015625 60.27734375 195.5234375 C65.070562 190.29253117 68.80995074 184.58648277 72.40625 178.484375 C73.38271484 176.85048828 73.38271484 176.85048828 74.37890625 175.18359375 C80.34376974 164.84267248 84.11882839 153.92914865 87.40625 142.484375 C87.61765625 141.75927734 87.8290625 141.03417969 88.046875 140.28710938 C94.7220655 116.40526227 95.14568722 89.10489569 94.40625 64.484375 C90.08736862 63.36803256 85.77330895 62.33328672 81.40234375 61.44140625 C53.20373094 55.67004272 25.66056592 47.08712549 1.2265625 31.515625 C-2.65875819 29.31449912 -4.73318517 31.75659814 -8.15625 33.984375 Z " fill="#1FC8BF" transform="translate(251.59375,67.515625)"/>
<path d="M0 0 C2.08764473 0.78286677 4.03529239 1.69747807 6 2.75 C6 3.41 6 4.07 6 4.75 C6.51046875 4.84152344 7.0209375 4.93304688 7.546875 5.02734375 C10.98513843 6.04020798 14.07334465 7.68220432 17.25 9.3125 C17.8996875 9.64185547 18.549375 9.97121094 19.21875 10.31054688 C20.81434294 11.12007565 22.40742483 11.93455042 24 12.75 C24 13.41 24 14.07 24 14.75 C26.03103161 15.42627386 28.06209473 16.10245316 30.09326172 16.77832031 C32.15098274 17.46618607 34.20715021 18.15870734 36.26220703 18.85449219 C61.63616697 27.42286608 86.28345845 33.01359912 113 35.75 C113.63995127 96.16632306 112.12001718 160.88290687 70 208.75 C68.3446409 210.42789803 66.6788267 212.09558274 65 213.75 C64.484375 214.30042969 63.96875 214.85085938 63.4375 215.41796875 C48.05807378 231.67502527 26.44280582 244.07936615 6.625 254.125 C5.99537354 254.44678223 5.36574707 254.76856445 4.71704102 255.10009766 C-0.04713681 257.45818175 -4.92778497 259.17285131 -10 260.75 C-10.0062509 256.16541146 -9.94676484 251.58397897 -9.875 247 C-9.87757813 245.69804687 -9.88015625 244.39609375 -9.8828125 243.0546875 C-9.68486981 233.45446699 -9.68486981 233.45446699 -6.40625 230.08203125 C-4.72015625 229.42267578 -4.72015625 229.42267578 -3 228.75 C-1.25589844 227.88181641 -1.25589844 227.88181641 0.5234375 226.99609375 C1.14387939 226.70476562 1.76432129 226.4134375 2.40356445 226.11328125 C11.31178528 221.93000281 19.24701446 216.79098955 27.21044922 211.03564453 C28.82441483 209.87614345 30.45986393 208.74668872 32.09765625 207.62109375 C38.7841945 202.96590889 44.43829351 197.6932987 50 191.75 C50.63808594 191.08097656 51.27617187 190.41195312 51.93359375 189.72265625 C56.70864766 184.52220779 60.42174559 178.82148975 64 172.75 C64.65097656 171.66074219 65.30195313 170.57148438 65.97265625 169.44921875 C71.93751974 159.10829748 75.71257839 148.19477365 79 136.75 C79.21140625 136.02490234 79.4228125 135.29980469 79.640625 134.55273438 C86.35236511 110.54012364 86.20112061 83.51526106 87 58.75 C85.93007813 58.61464844 84.86015625 58.47929687 83.7578125 58.33984375 C56.6152611 54.62827453 29.2066121 46.40423562 4.88232422 33.68408203 C3.06311091 32.78131807 1.1731101 32.02577551 -0.71484375 31.27734375 C-4.5965634 29.43386663 -6.55571984 28.31745222 -9 24.75 C-10.43533282 17.18717316 -9.7306637 9.36389045 -9 1.75 C-8.01 1.75 -7.02 1.75 -6 1.75 C-5.360625 1.399375 -4.72125 1.04875 -4.0625 0.6875 C-2 -0.25 -2 -0.25 0 0 Z " fill="#035581" transform="translate(259,73.25)"/>
<path d="M0 0 C0.71495132 -0.0066568 1.42990265 -0.0133136 2.16651917 -0.02017212 C3.67519568 -0.0302742 5.18391665 -0.0349899 6.69262695 -0.03466797 C8.99310295 -0.03904196 11.29165995 -0.07538448 13.59179688 -0.11328125 C15.06119139 -0.11914997 16.53059497 -0.123119 18 -0.125 C18.68348007 -0.13937103 19.36696014 -0.15374207 20.07115173 -0.16854858 C24.8451527 -0.1231735 27.22703742 0.95581214 30.56640625 4.3359375 C33.56640625 9.50835129 33.56640625 9.50835129 33.56640625 12.3359375 C34.16453125 12.1090625 34.76265625 11.8821875 35.37890625 11.6484375 C36.10078125 11.5453125 36.82265625 11.4421875 37.56640625 11.3359375 C39.31640625 12.7734375 39.31640625 12.7734375 40.56640625 14.3359375 C40.04046875 15.41875 40.04046875 15.41875 39.50390625 16.5234375 C38.33906097 19.20035237 38.33906097 19.20035237 39.0625 21.46484375 C39.7636036 25.45950379 39.21052025 29.08808551 38.69140625 33.0859375 C38.55412109 34.25576172 38.55412109 34.25576172 38.4140625 35.44921875 C37.70419457 41.19814918 37.70419457 41.19814918 36.56640625 42.3359375 C35.04712587 42.40773714 33.52473143 42.41985757 32.00390625 42.3984375 C31.17761719 42.38941406 30.35132813 42.38039062 29.5 42.37109375 C28.86191406 42.35949219 28.22382813 42.34789062 27.56640625 42.3359375 C25.56640625 38.5859375 25.56640625 38.5859375 25.56640625 36.3359375 C14.67640625 36.0059375 3.78640625 35.6759375 -7.43359375 35.3359375 C-7.43359375 37.3159375 -7.43359375 39.2959375 -7.43359375 41.3359375 C-8.43359375 42.3359375 -8.43359375 42.3359375 -10.68359375 42.46875 C-11.59109375 42.46617187 -12.49859375 42.46359375 -13.43359375 42.4609375 C-14.79484375 42.46480469 -14.79484375 42.46480469 -16.18359375 42.46875 C-18.43359375 42.3359375 -18.43359375 42.3359375 -19.43359375 41.3359375 C-20.51710757 35.49990789 -20.48622982 29.92699396 -20.30664062 24.03320312 C-20.24450125 20.1915278 -20.5326735 17.66851317 -22.43359375 14.3359375 C-22.10359375 13.6759375 -21.77359375 13.0159375 -21.43359375 12.3359375 C-20.50546875 12.1296875 -19.57734375 11.9234375 -18.62109375 11.7109375 C-15.04126741 10.16669869 -14.83255379 9.69957839 -13.30859375 6.3359375 C-13.03789062 5.6346875 -12.7671875 4.9334375 -12.48828125 4.2109375 C-9.86158717 -0.45874086 -4.79617153 0.01557187 0 0 Z M-7.43359375 5.3359375 C-11.58266495 12.14336791 -11.58266495 12.14336791 -11.43359375 15.3359375 C2.09640625 15.3359375 15.62640625 15.3359375 29.56640625 15.3359375 C27.80210851 9.57163976 27.80210851 9.57163976 25.56640625 5.3359375 C14.67640625 5.3359375 3.78640625 5.3359375 -7.43359375 5.3359375 Z M-14.43359375 24.3359375 C-14.10359375 25.3259375 -13.77359375 26.3159375 -13.43359375 27.3359375 C-10.79359375 27.3359375 -8.15359375 27.3359375 -5.43359375 27.3359375 C-5.76359375 26.0159375 -6.09359375 24.6959375 -6.43359375 23.3359375 C-10.57453073 23.12623191 -10.57453073 23.12623191 -14.43359375 24.3359375 Z M22.56640625 24.3359375 C22.89640625 25.3259375 23.22640625 26.3159375 23.56640625 27.3359375 C26.20640625 27.3359375 28.84640625 27.3359375 31.56640625 27.3359375 C31.23640625 26.0159375 30.90640625 24.6959375 30.56640625 23.3359375 C26.42546927 23.12623191 26.42546927 23.12623191 22.56640625 24.3359375 Z " fill="#075A8C" transform="translate(281.43359375,173.6640625)"/>
<path d="M0 0 C3.71243341 1.3539463 6.84697916 3.32923464 10.15625 5.46875 C10.85967529 5.91581299 11.56310059 6.36287598 12.2878418 6.82348633 C17.82904612 10.37053308 23.25256669 14.06535686 28.59765625 17.90234375 C31.6093124 20.02406228 31.6093124 20.02406228 34.87109375 21.62890625 C37.90104331 23.21602269 40.26203476 24.52001752 42.65625 26.96875 C43.85063573 31.36884634 43.94933626 35.4361369 43.65625 39.96875 C42.66625 40.46375 42.66625 40.46375 41.65625 40.96875 C39.26168739 39.70940987 37.00733019 38.40083489 34.71875 36.96875 C34.04432861 36.55520264 33.36990723 36.14165527 32.67504883 35.71557617 C27.82360348 32.73011562 23.01548124 29.67620702 18.22265625 26.59765625 C14.08394233 23.9708013 9.87069635 21.47152701 5.65625 18.96875 C4.81835938 18.39640625 3.98046875 17.8240625 3.1171875 17.234375 C0.83020963 15.80168061 0.83020963 15.80168061 -1.27734375 16.05078125 C-4.16753316 17.33470282 -6.74004474 18.95545078 -9.40625 20.65625 C-13.44417613 23.20526865 -17.48438526 25.62816785 -21.71875 27.84375 C-27.20343421 30.76027336 -32.2904655 34.18925888 -37.39404297 37.71826172 C-42.13958144 40.96875 -42.13958144 40.96875 -44.34375 40.96875 C-44.64295047 38.78972437 -44.85521664 36.59866553 -45.03125 34.40625 C-45.22267578 32.57900391 -45.22267578 32.57900391 -45.41796875 30.71484375 C-43.66442515 24.59975897 -38.65758047 22.97405123 -33.34375 19.96875 C-31.13790939 18.55272613 -28.9427761 17.11990486 -26.7578125 15.671875 C-25.63191465 14.93297744 -24.50560995 14.19469945 -23.37890625 13.45703125 C-21.66077829 12.32955608 -19.94286643 11.20175281 -18.22509766 10.07373047 C-16.5282009 8.95979909 -14.83053978 7.84704002 -13.1328125 6.734375 C-12.13975098 6.08243164 -11.14668945 5.43048828 -10.12353516 4.75878906 C-2.67807154 -0.03570762 -2.67807154 -0.03570762 0 0 Z " fill="#25CEC0" transform="translate(211.34375,153.03125)"/>
<path d="M0 0 C0.85464844 -0.00515625 1.70929688 -0.0103125 2.58984375 -0.015625 C5.18224567 0.26286367 6.82764234 0.94330828 9.0625 2.25 C8.0725 4.23 7.0825 6.21 6.0625 8.25 C6.55878906 7.75628906 7.05507813 7.26257813 7.56640625 6.75390625 C10.84642295 3.66060777 13.27557662 1.49850212 17.625 0.125 C22.97498765 0.31954501 26.55060255 1.8176761 30.4375 5.5 C32.80713875 9.51015788 33.48464086 12.78380864 32.69140625 17.41796875 C30.57793053 25.04485938 25.59633636 30.87622042 19.0625 35.25 C18.4025 35.25 17.7425 35.25 17.0625 35.25 C16.7325 32.61 16.4025 29.97 16.0625 27.25 C14.0825 27.25 12.1025 27.25 10.0625 27.25 C9.80855469 26.69570312 9.55460937 26.14140625 9.29296875 25.5703125 C8.94878906 24.84585938 8.60460937 24.12140625 8.25 23.375 C7.74533203 22.29605469 7.74533203 22.29605469 7.23046875 21.1953125 C6.06782903 18.94457194 6.06782903 18.94457194 3.0625 17.25 C1.13505631 16.8873883 1.13505631 16.8873883 -0.94921875 16.8359375 C-1.70654297 16.79726562 -2.46386719 16.75859375 -3.24414062 16.71875 C-4.02982422 16.6878125 -4.81550781 16.656875 -5.625 16.625 C-6.42228516 16.58632812 -7.21957031 16.54765625 -8.04101562 16.5078125 C-10.00613475 16.41367506 -11.9717854 16.33075368 -13.9375 16.25 C-13.82088251 11.38387037 -13.69919287 8.19209381 -10.5625 4.3125 C-6.78747065 1.34640551 -4.78709737 -0.02879457 0 0 Z " fill="#075488" transform="translate(305.9375,155.75)"/>
<path d="M0 0 C0.99 0.33 1.98 0.66 3 1 C3 12.55 3 24.1 3 36 C7.62 36 12.24 36 17 36 C17 39.63 17 43.26 17 47 C13.02078906 47.02682614 9.04175659 47.04675393 5.0625 47.0625 C3.35803711 47.07506836 3.35803711 47.07506836 1.61914062 47.08789062 C0.53955078 47.09111328 -0.54003906 47.09433594 -1.65234375 47.09765625 C-3.15269165 47.10551147 -3.15269165 47.10551147 -4.68334961 47.11352539 C-7 47 -7 47 -8 46 C-8.43136354 40.6623386 -8.59824848 35.31531161 -8.77734375 29.96386719 C-8.84220565 28.16135507 -8.9179729 26.35920085 -9.00488281 24.55761719 C-9.12982266 21.96058511 -9.22087335 19.36427148 -9.3046875 16.765625 C-9.37150223 15.5622348 -9.37150223 15.5622348 -9.43966675 14.33453369 C-9.53715343 10.03562821 -9.43203318 8.53060429 -6.61376953 5.06933594 C-5.75122559 4.38645508 -4.88868164 3.70357422 -4 3 C-3.29875 2.38125 -2.5975 1.7625 -1.875 1.125 C-1.25625 0.75375 -0.6375 0.3825 0 0 Z " fill="#0F9BB9" transform="translate(185,188)"/>
<path d="M0 0 C3.28426103 1.05565533 4.57151556 2.61660352 6.25 5.5 C8 9 8 9 8 11 C8.598125 10.773125 9.19625 10.54625 9.8125 10.3125 C10.534375 10.209375 11.25625 10.10625 12 10 C13.75 11.4375 13.75 11.4375 15 13 C14.4740625 14.0828125 14.4740625 14.0828125 13.9375 15.1875 C12.77265472 17.86441487 12.77265472 17.86441487 13.49609375 20.12890625 C14.19719735 24.12356629 13.644114 27.75214801 13.125 31.75 C12.98771484 32.91982422 12.98771484 32.91982422 12.84765625 34.11328125 C12.13778832 39.86221168 12.13778832 39.86221168 11 41 C9.48071962 41.07179964 7.95832518 41.08392007 6.4375 41.0625 C5.61121094 41.05347656 4.78492188 41.04445312 3.93359375 41.03515625 C3.29550781 41.02355469 2.65742188 41.01195312 2 41 C0 37.25 0 37.25 0 35 C-10.89 34.67 -21.78 34.34 -33 34 C-33.33 33.34 -33.66 32.68 -34 32 C-18.655 31.505 -18.655 31.505 -3 31 C-2.67 30.34 -2.34 29.68 -2 29 C-1.34 29 -0.68 29 0 29 C0 28.01 0 27.02 0 26 C1.98 26 3.96 26 6 26 C5.505 24.515 5.505 24.515 5 23 C2.36 23 -0.28 23 -3 23 C-2.67 20.69 -2.34 18.38 -2 16 C-13.55 15.67 -25.1 15.34 -37 15 C-37 14.67 -37 14.34 -37 14 C-23.47 14 -9.94 14 4 14 C2.68 11.36 1.36 8.72 0 6 C0 5.34 0 4.68 0 4 C-9.9 4 -19.8 4 -30 4 C-30 3.67 -30 3.34 -30 3 C-20.1 3 -10.2 3 0 3 C0 2.01 0 1.02 0 0 Z " fill="#0C507D" transform="translate(307,175)"/>
<path d="M0 0 C4.82371543 0.44871771 7.79945224 1.25460874 11 5 C11.68114646 8.12864993 11.5822022 11.17057082 11.48828125 14.359375 C11.47766914 15.71594208 11.47766914 15.71594208 11.46684265 17.09991455 C11.43888765 19.98412329 11.37614813 22.86637965 11.3125 25.75 C11.28741851 27.70700318 11.26460508 29.66403684 11.24414062 31.62109375 C11.18905739 36.414813 11.1027778 41.20707568 11 46 C9.35425434 46.02688151 7.70838587 46.04634123 6.0625 46.0625 C5.14597656 46.07410156 4.22945312 46.08570313 3.28515625 46.09765625 C1 46 1 46 0 45 C-0.0928726 43.58774954 -0.11746772 42.17091066 -0.11352539 40.75561523 C-0.11344986 39.85475693 -0.11337433 38.95389862 -0.11329651 38.02574158 C-0.10813522 37.04658279 -0.10297394 36.06742401 -0.09765625 35.05859375 C-0.0962413 34.06118668 -0.09482635 33.0637796 -0.09336853 32.03614807 C-0.08775114 28.83656876 -0.07519571 25.63705831 -0.0625 22.4375 C-0.05748724 20.27408955 -0.05292395 18.11067801 -0.04882812 15.94726562 C-0.03777607 10.63148675 -0.02102104 5.31574829 0 0 Z " fill="#11A9BA" transform="translate(233,189)"/>
<path d="M0 0 C2.9375 2.0625 2.9375 2.0625 5 5 C5.5818272 8.49096318 5.6143926 11.77121481 4 15 C3.81239641 19.78389142 4.22942448 24.28022492 5 29 C1.31561992 31.34798025 -1.89176248 31.23646696 -6.1875 31.1875 C-7.43917969 31.18105469 -8.69085938 31.17460937 -9.98046875 31.16796875 C-13 31 -13 31 -14 30 C-13.81482763 26.86718575 -13.54632057 23.75638237 -13.22851562 20.63476562 C-12.896084 16.7258283 -13.0202268 14.37547537 -15 11 C-14.85856953 7.03994684 -14.60244891 4.76310196 -12.125 1.625 C-8.00350797 -1.5267292 -4.89272372 -1.18100228 0 0 Z M-8.875 5.125 C-10.55290631 7.92151052 -9.74875648 9.93690532 -9 13 C-8.34 13 -7.68 13 -7 13 C-7.66 17.29 -8.32 21.58 -9 26 C-6.03 26 -3.06 26 0 26 C-0.09539062 25.08476562 -0.19078125 24.16953125 -0.2890625 23.2265625 C-0.39992187 22.03804687 -0.51078125 20.84953125 -0.625 19.625 C-0.74101562 18.44164062 -0.85703125 17.25828125 -0.9765625 16.0390625 C-0.98429688 15.03617188 -0.99203125 14.03328125 -1 13 C-0.34 12.34 0.32 11.68 1 11 C0.67028521 7.70285207 0.3773161 6.3773161 -2 4 C-4.83386167 3.6366844 -6.40522151 3.6431329 -8.875 5.125 Z " fill="#36B5B4" transform="translate(215,192)"/>
<path d="M0 0 C0.33 0 0.66 0 1 0 C1.55353075 12.66970387 1.55353075 12.66970387 -2 18 C-2.66 18 -3.32 18 -4 18 C-4 20.97 -4 23.94 -4 27 C-4.99 27.495 -4.99 27.495 -6 28 C-6.65772428 31.02934491 -6.65772428 31.02934491 -7 34 C-7.99 34.33 -8.98 34.66 -10 35 C-11.16551482 36.72420626 -11.16551482 36.72420626 -12.0625 38.8125 C-12.38347656 39.49957031 -12.70445312 40.18664062 -13.03515625 40.89453125 C-13.35355469 41.58933594 -13.67195313 42.28414062 -14 43 C-14.39058594 43.70511719 -14.78117187 44.41023438 -15.18359375 45.13671875 C-15.45300781 45.75160156 -15.72242188 46.36648437 -16 47 C-15.67 47.66 -15.34 48.32 -15 49 C-15.825 49.433125 -16.65 49.86625 -17.5 50.3125 C-18.325 50.869375 -19.15 51.42625 -20 52 C-20 52.99 -20 53.98 -20 55 C-20.763125 55.433125 -21.52625 55.86625 -22.3125 56.3125 C-25.23357786 57.80843872 -25.23357786 57.80843872 -26.375 60.9375 C-28.57250411 65.07895006 -30.8449801 65.96168835 -35 68 C-35 69.32 -35 70.64 -35 72 C-36.65 72 -38.3 72 -40 72 C-40.103125 72.598125 -40.20625 73.19625 -40.3125 73.8125 C-41.08876455 76.28243264 -42.07088921 77.32251235 -44 79 C-43.505 79.99 -43.505 79.99 -43 81 C-43.59167969 81.04898438 -44.18335938 81.09796875 -44.79296875 81.1484375 C-49.21151616 81.56650561 -52.9451784 82.08522313 -57 84 C-58.66666667 84.66666667 -60.33333333 85.33333333 -62 86 C-58.71237632 82.52741019 -55.49933688 79.88394414 -51.4375 77.375 C-44.6044789 72.9033906 -38.77338189 67.72352871 -33 62 C-32.51611816 61.52546387 -32.03223633 61.05092773 -31.53369141 60.56201172 C-24.57676742 53.6565685 -19.40132049 46.47039863 -14.91308594 37.76464844 C-14.02127674 36.04111985 -13.09303931 34.3365955 -12.1640625 32.6328125 C-6.70967816 22.31950063 -2.75244366 11.34006786 0 0 Z " fill="#0A436B" transform="translate(339,206)"/>
<path d="M0 0 C0.33 0.66 0.66 1.32 1 2 C5.455 1.505 5.455 1.505 10 1 C11.2077558 4.62326739 10.54311128 5.64146369 9 9 C11.97 9 14.94 9 18 9 C18.33 10.98 18.66 12.96 19 15 C19.99 15 20.98 15 22 15 C22 15.66 22 16.32 22 17 C24.27399422 17.73092672 25.65351906 18.08662023 28 17.5 C30.34648094 16.91337977 31.72600578 17.26907328 34 18 C34 18.99 34 19.98 34 21 C34.3062434 22.33981486 34.63451555 23.67511887 35 25 C36.65 25 38.3 25 40 25 C40.495 26.485 40.495 26.485 41 28 C41.99 27.67 42.98 27.34 44 27 C44 26.34 44 25.68 44 25 C45.9375 25.375 45.9375 25.375 48 26 C48.495 26.99 48.495 26.99 49 28 C49.99 27.67 50.98 27.34 52 27 C51.67 28.98 51.34 30.96 51 33 C51.969375 32.979375 52.93875 32.95875 53.9375 32.9375 C57 33 57 33 58 34 C58.33 30.04 58.66 26.08 59 22 C59.33 22 59.66 22 60 22 C60 27.28 60 32.56 60 38 C54.72430823 37.12071804 51.37436638 35.8589798 46.875 33.3125 C45.53216047 32.56996565 44.18840047 31.82909362 42.84375 31.08984375 C42.18632812 30.72745605 41.52890625 30.36506836 40.8515625 29.99169922 C38.40615937 28.68193821 35.89360653 27.5365987 33.375 26.375 C27.37753312 23.41298575 21.87573538 19.76648178 16.3125 16.0625 C14.99354736 15.18440674 14.99354736 15.18440674 13.64794922 14.28857422 C7.91249824 10.41641696 2.40665916 6.31858852 -3 2 C-2.01 1.34 -1.02 0.68 0 0 Z " fill="#16AEB7" transform="translate(190,295)"/>
<path d="M0 0 C1.5625 1.25 1.5625 1.25 3 3 C2.6875 5.1875 2.6875 5.1875 2 7 C3.32 7 4.64 7 6 7 C6.33 6.01 6.66 5.02 7 4 C7.66 4 8.32 4 9 4 C9 4.66 9 5.32 9 6 C10.98 5.67 12.96 5.34 15 5 C13.6385565 7.72288699 12.08468462 8.12517477 9.375 9.5 C3.62065777 12.53974452 -1.70298479 16.05102539 -7.04736328 19.74804688 C-11.79705745 23 -11.79705745 23 -14 23 C-14.66229847 18.17659394 -14.96403019 13.79395448 -14 9 C-10.77486337 5.67273404 -7.17929744 3.91122719 -3 2 C-2.01 1.34 -1.02 0.68 0 0 Z " fill="#15BBC0" transform="translate(181,171)"/>
<path d="M0 0 C0.66 0 1.32 0 2 0 C-0.53793601 5.99875784 -5.41434667 10.52352889 -10 15 C-10.46664062 15.50015625 -10.93328125 16.0003125 -11.4140625 16.515625 C-23.21380544 28.95476288 -38.59711076 38.1668127 -53.125 47.0625 C-53.74036621 47.4447876 -54.35573242 47.8270752 -54.98974609 48.22094727 C-58.30163418 50.21439109 -61.14818654 51.52760778 -65 52 C-64.67 51.01 -64.34 50.02 -64 49 C-61.03 48.505 -61.03 48.505 -58 48 C-58.33 45.69 -58.66 43.38 -59 41 C-56.47990794 40.49598159 -53.95993632 39.9921827 -51.4375 39.5 C-49.27318889 39.05603875 -47.13829418 38.55437257 -45 38 C-44.87625 37.38125 -44.7525 36.7625 -44.625 36.125 C-44 34 -44 34 -42 32 C-40.6078125 32.2784375 -40.6078125 32.2784375 -39.1875 32.5625 C-35.98938259 33.29035439 -35.98938259 33.29035439 -33.25 31.75 C-30.78918149 30.02635231 -30.78918149 30.02635231 -29 27 C-25.55555556 24 -25.55555556 24 -22 24 C-22 22.02 -22 20.04 -22 18 C-18.68885166 16.87119943 -15.41021743 15.78697325 -12 15 C-12 13.35 -12 11.7 -12 10 C-10.5459375 9.319375 -10.5459375 9.319375 -9.0625 8.625 C-5.92920418 7.34213779 -5.92920418 7.34213779 -5 5 C-4.34 5 -3.68 5 -3 5 C-3 4.34 -3 3.68 -3 3 C-2.34 3 -1.68 3 -1 3 C-0.67 2.01 -0.34 1.02 0 0 Z " fill="#05406F" transform="translate(334,272)"/>
<path d="M0 0 C0.99 0.33 1.98 0.66 3 1 C2.67 3.31 2.34 5.62 2 8 C2.845625 7.979375 3.69125 7.95875 4.5625 7.9375 C8.11892777 8.00216232 11.49093503 8.4385496 15 9 C15 10.98 15 12.96 15 15 C15.66 15 16.32 15 17 15 C17 14.34 17 13.68 17 13 C17.66 13 18.32 13 19 13 C19 13.99 19 14.98 19 16 C23.57245958 16.91232688 23.57245958 16.91232688 28.125 16.4375 C30.84608737 15.80257961 32.53863326 16.83768793 35 18 C34.01 18.495 34.01 18.495 33 19 C33 19.66 33 20.32 33 21 C37.99074151 22.76339533 42.74439153 24.23088657 48 25 C48.66 25.33 49.32 25.66 50 26 C50.33 25.34 50.66 24.68 51 24 C51.99 24.33 52.98 24.66 54 25 C56.14255793 24.61067144 56.14255793 24.61067144 58 24 C58.495 25.485 58.495 25.485 59 27 C60.65 27.33 62.3 27.66 64 28 C64.33 27.34 64.66 26.68 65 26 C65 26.99 65 27.98 65 29 C65.66 29 66.32 29 67 29 C67 29.66 67 30.32 67 31 C67.99 31 68.98 31 70 31 C70 31.66 70 32.32 70 33 C63.15763603 32.36083307 56.78986154 30.74975088 50.1875 28.875 C49.08599609 28.56296631 47.98449219 28.25093262 46.84960938 27.92944336 C6.87002625 16.39040861 6.87002625 16.39040861 -3 7 C-3 6.01 -3 5.02 -3 4 C-2.34 4 -1.68 4 -1 4 C-0.67 2.68 -0.34 1.36 0 0 Z " fill="#0E7390" transform="translate(261,96)"/>
<path d="M0 0 C0.3253833 5.9203889 -0.80049287 10.74084673 -2.5625 16.375 C-2.83280029 17.2513208 -3.10310059 18.1276416 -3.3815918 19.03051758 C-8.90107837 36.50546806 -16.19841155 54.7775729 -28 69 C-29.15941038 65.52176885 -28.70820884 63.54104422 -28 60 C-27.34 60 -26.68 60 -26 60 C-26 58.35 -26 56.7 -26 55 C-23.525 54.505 -23.525 54.505 -21 54 C-20.67 51.69 -20.34 49.38 -20 47 C-19.34 47 -18.68 47 -18 47 C-18 46.01 -18 45.02 -18 44 C-17.01 43.505 -17.01 43.505 -16 43 C-16.99 42.34 -17.98 41.68 -19 41 C-19 39.68 -19 38.36 -19 37 C-18.34 37 -17.68 37 -17 37 C-17 37.66 -17 38.32 -17 39 C-15.515 38.505 -15.515 38.505 -14 38 C-13.40929986 36.05396726 -13.40929986 36.05396726 -13 34 C-12.34 33.34 -11.68 32.68 -11 32 C-9.76709799 29.54295238 -9.76709799 29.54295238 -9 27 C-9.33 26.34 -9.66 25.68 -10 25 C-9.34 24.67 -8.68 24.34 -8 24 C-7.34786708 21.97536745 -7.34786708 21.97536745 -7 20 C-6.34 20 -5.68 20 -5 20 C-5.02320313 19.38511719 -5.04640625 18.77023438 -5.0703125 18.13671875 C-5.09738281 16.92435547 -5.09738281 16.92435547 -5.125 15.6875 C-5.14820313 14.88699219 -5.17140625 14.08648437 -5.1953125 13.26171875 C-5 11 -5 11 -3 8 C-3.31730524 4.36060068 -3.31730524 4.36060068 -4 1 C-2 0 -2 0 0 0 Z " fill="#093D66" transform="translate(365,203)"/>
<path d="M0 0 C4.26231776 2.27323614 8.08395923 4.77114966 11.9375 7.6875 C20.783935 14.22457559 30.55202144 19.37238764 40.42700195 24.17675781 C42 25 42 25 43 26 C43.07205511 27.68608966 43.08386068 29.37500659 43.0625 31.0625 C43.05347656 31.98160156 43.04445312 32.90070313 43.03515625 33.84765625 C43.02355469 34.55792969 43.01195312 35.26820313 43 36 C42.67 36 42.34 36 42 36 C41.67 34.35 41.34 32.7 41 31 C38.03 31.495 38.03 31.495 35 32 C34.505 27.545 34.505 27.545 34 23 C33.071875 23.20625 32.14375 23.4125 31.1875 23.625 C28 24 28 24 25 22 C25 21.01 25 20.02 25 19 C19.8531808 15.83272665 15.841744 15.64949536 10 16 C10 15.34 10 14.68 10 14 C10.99 14 11.98 14 13 14 C13 13.34 13 12.68 13 12 C12.01 12.33 11.02 12.66 10 13 C8.68 11.02 7.36 9.04 6 7 C5.01 7.495 5.01 7.495 4 8 C4 7.34 4 6.68 4 6 C3.34 5.67 2.68 5.34 2 5 C1.27840576 3.35636866 0.60648579 1.68949614 0 0 Z " fill="#1589A3" transform="translate(207,280)"/>
<path d="M0 0 C1.20825439 0.42539063 1.20825439 0.42539063 2.44091797 0.859375 C5.85046293 2.05068249 9.28589213 3.15300098 12.7265625 4.25 C14.07363144 4.68209304 15.42063559 5.1143881 16.76757812 5.546875 C18.84272987 6.21249434 20.91806243 6.87752701 22.99389648 7.54101562 C30.17083725 9.83601189 37.32732022 12.12830482 44.34765625 14.875 C40.43029044 16.0450097 37.3680661 15.57084017 33.34765625 14.875 C33.34765625 14.215 33.34765625 13.555 33.34765625 12.875 C32.35765625 13.205 31.36765625 13.535 30.34765625 13.875 C30.34765625 13.215 30.34765625 12.555 30.34765625 11.875 C29.68765625 11.875 29.02765625 11.875 28.34765625 11.875 C27.68765625 12.535 27.02765625 13.195 26.34765625 13.875 C25.68765625 13.545 25.02765625 13.215 24.34765625 12.875 C23.68765625 13.535 23.02765625 14.195 22.34765625 14.875 C21.02765625 14.875 19.70765625 14.875 18.34765625 14.875 C18.01765625 12.565 17.68765625 10.255 17.34765625 7.875 C10.65152429 7.077163 4.08999044 6.74589147 -2.65234375 6.875 C-2.65234375 6.215 -2.65234375 5.555 -2.65234375 4.875 C-3.31234375 4.875 -3.97234375 4.875 -4.65234375 4.875 C-4.98234375 3.225 -5.31234375 1.575 -5.65234375 -0.125 C-3.65234375 -1.125 -3.65234375 -1.125 0 0 Z " fill="#0C7190" transform="translate(286.65234375,89.125)"/>
<path d="M0 0 C0.33 0 0.66 0 1 0 C0.85851011 1.6045556 0.71164314 3.20863767 0.5625 4.8125 C0.48128906 5.70582031 0.40007812 6.59914062 0.31640625 7.51953125 C0 10 0 10 -1 13 C1.97 13 4.94 13 8 13 C7.67 12.154375 7.34 11.30875 7 10.4375 C5.93894046 6.79010784 5.84890987 3.77725336 6 0 C6.33 0 6.66 0 7 0 C7.33 3.3 7.66 6.6 8 10 C8.66 10 9.32 10 10 10 C10 7.69 10 5.38 10 3 C10.33 3 10.66 3 11 3 C11.66 7.29 12.32 11.58 13 16 C8.69301387 18.15349306 6.5437767 18.24143165 1.8125 18.1875 C0.56082031 18.18105469 -0.69085938 18.17460937 -1.98046875 18.16796875 C-5 18 -5 18 -6 17 C-5.984375 15.0390625 -5.984375 15.0390625 -5.75 12.625 C-5.64945313 11.43777344 -5.64945313 11.43777344 -5.546875 10.2265625 C-4.91063078 7.63613959 -4.06149361 6.64706964 -2 5 C-1.67 5 -1.34 5 -1 5 C-0.67 3.35 -0.34 1.7 0 0 Z " fill="#23A0AF" transform="translate(207,205)"/>
<path d="M0 0 C1.32 0.33 2.64 0.66 4 1 C3.34 2.32 2.68 3.64 2 5 C2.66 5.33 3.32 5.66 4 6 C4.33 6.66 4.66 7.32 5 8 C3.68 8.33 2.36 8.66 1 9 C0.67 10.32 0.34 11.64 0 13 C-1.98 13.33 -3.96 13.66 -6 14 C-6 13.34 -6 12.68 -6 12 C-6.66 12 -7.32 12 -8 12 C-8.33 13.65 -8.66 15.3 -9 17 C-10.65 16.67 -12.3 16.34 -14 16 C-13.814375 15.071875 -13.62875 14.14375 -13.4375 13.1875 C-12.75876119 9.98656229 -12.75876119 9.98656229 -14 7 C-10.78548731 5.39274365 -7.56387464 5.94251815 -4 6 C-3.67 4.68 -3.34 3.36 -3 2 C-2.01 2 -1.02 2 0 2 C0 1.34 0 0.68 0 0 Z " fill="#19C7C2" transform="translate(196,163)"/>
<path d="M0 0 C0.66 0.66 1.32 1.32 2 2 C2.66 1.67 3.32 1.34 4 1 C3.625 3.9375 3.625 3.9375 3 7 C2.01 7.495 2.01 7.495 1 8 C0.9190277 10.43816585 0.85953028 12.87364384 0.8125 15.3125 C0.78736328 16.00279297 0.76222656 16.69308594 0.73632812 17.40429688 C0.59977442 21.43515456 0.59977442 21.43515456 2.53125 24.8125 C3.0159375 25.204375 3.500625 25.59625 4 26 C3.6875 28.6875 3.6875 28.6875 3 31 C3.66 31 4.32 31 5 31 C4.67 32.98 4.34 34.96 4 37 C3.34 37 2.68 37 2 37 C2.49113281 37.73476562 2.49113281 37.73476562 2.9921875 38.484375 C4.41772589 42.04269563 4.21154348 45.48203011 4.125 49.25 C4.11597656 49.99507812 4.10695312 50.74015625 4.09765625 51.5078125 C4.07418358 53.33868059 4.03831525 55.16938238 4 57 C0.75013589 51.42929142 0.62256345 44.78531714 -0.1875 38.5 C-0.27848969 37.80758209 -0.36947937 37.11516418 -0.46322632 36.40176392 C-4.10103923 8.20207847 -4.10103923 8.20207847 0 0 Z " fill="#2AD6C2" transform="translate(131,145)"/>
<path d="M0 0 C3.375 0.3125 3.375 0.3125 7 1 C7.66 1.99 8.32 2.98 9 4 C11.58380177 4.25030977 11.58380177 4.25030977 14 4 C14.33 4.99 14.66 5.98 15 7 C15.99 6.67 16.98 6.34 18 6 C18 5.34 18 4.68 18 4 C19.9375 4.375 19.9375 4.375 22 5 C22.33 5.66 22.66 6.32 23 7 C23.99 6.67 24.98 6.34 26 6 C25.67 7.98 25.34 9.96 25 12 C25.969375 11.979375 26.93875 11.95875 27.9375 11.9375 C31 12 31 12 32 13 C32.33 9.04 32.66 5.08 33 1 C33.33 1 33.66 1 34 1 C34 6.28 34 11.56 34 17 C28.72410171 16.12068362 25.3747797 14.85881416 20.875 12.3125 C19.55813206 11.58571478 18.24041027 10.86047469 16.921875 10.13671875 C16.26767578 9.77626465 15.61347656 9.41581055 14.93945312 9.04443359 C11.09110211 6.972021 7.13927234 5.109146 3.1953125 3.2265625 C1 2 1 2 0 0 Z " fill="#1B89A3" transform="translate(216,316)"/>
<path d="M0 0 C0.66 0 1.32 0 2 0 C-0.53793601 5.99875784 -5.41434667 10.52352889 -10 15 C-10.69996094 15.75023437 -10.69996094 15.75023437 -11.4140625 16.515625 C-15.149493 20.45346799 -19.2127609 23.86745911 -23.5 27.1875 C-24.03367187 27.60346436 -24.56734375 28.01942871 -25.1171875 28.44799805 C-28.90596836 31.33405566 -32.82537165 33.70711701 -37 36 C-35.59645587 32.49113968 -34.35634177 31.5732852 -31 30 C-30.34 29.01 -29.68 28.02 -29 27 C-25.55555556 24 -25.55555556 24 -22 24 C-22 22.02 -22 20.04 -22 18 C-18.68885166 16.87119943 -15.41021743 15.78697325 -12 15 C-12 13.35 -12 11.7 -12 10 C-10.5459375 9.319375 -10.5459375 9.319375 -9.0625 8.625 C-5.92920418 7.34213779 -5.92920418 7.34213779 -5 5 C-4.34 5 -3.68 5 -3 5 C-3 4.34 -3 3.68 -3 3 C-2.34 3 -1.68 3 -1 3 C-0.67 2.01 -0.34 1.02 0 0 Z " fill="#0A375F" transform="translate(334,272)"/>
<path d="M0 0 C1.98 0 3.96 0 6 0 C6 0.99 6 1.98 6 3 C3.5 4.6875 3.5 4.6875 1 6 C1.66 8.31 2.32 10.62 3 13 C5.31 13.33 7.62 13.66 10 14 C10.33 12.02 10.66 10.04 11 8 C11.33 8 11.66 8 12 8 C12.04254356 9.99954746 12.04080783 12.00041636 12 14 C11 15 11 15 8.93359375 15.09765625 C8.10988281 15.08605469 7.28617187 15.07445312 6.4375 15.0625 C5.61121094 15.05347656 4.78492188 15.04445312 3.93359375 15.03515625 C3.29550781 15.02355469 2.65742188 15.01195312 2 15 C0 11.25 0 11.25 0 9 C-10.89 8.67 -21.78 8.34 -33 8 C-33.33 7.34 -33.66 6.68 -34 6 C-18.655 5.505 -18.655 5.505 -3 5 C-2.67 4.34 -2.34 3.68 -2 3 C-1.34 3 -0.68 3 0 3 C0 2.01 0 1.02 0 0 Z " fill="#144E75" transform="translate(307,201)"/>
<path d="M0 0 C5.13280498 -0.3755711 8.35013025 0.92416529 13 3 C14.9924325 3.37593066 16.9918674 3.71979545 19 4 C19.66 4.33 20.32 4.66 21 5 C21.33 4.34 21.66 3.68 22 3 C22.99 3.33 23.98 3.66 25 4 C27.14255793 3.61067144 27.14255793 3.61067144 29 3 C29.33 3.99 29.66 4.98 30 6 C32.475 6.495 32.475 6.495 35 7 C35.33 6.34 35.66 5.68 36 5 C36 5.99 36 6.98 36 8 C36.66 8 37.32 8 38 8 C38 8.66 38 9.32 38 10 C38.99 10 39.98 10 41 10 C41 10.66 41 11.32 41 12 C33.91037859 11.3633107 27.33094591 9.58131824 20.5 7.625 C19.41074219 7.32078125 18.32148438 7.0165625 17.19921875 6.703125 C11.34900962 5.04780585 5.65386008 3.2368427 0 1 C0 0.67 0 0.34 0 0 Z " fill="#136586" transform="translate(290,117)"/>
<path d="M0 0 C0.33 0 0.66 0 1 0 C0.5214293 20.55738783 -1.12881777 40.78684558 -5 61 C-5.99 60.34 -6.98 59.68 -8 59 C-7.25 52.375 -7.25 52.375 -5 49 C-4.54754598 46.0250409 -4.20176356 43.11732921 -3.9375 40.125 C-3.81181641 38.80870605 -3.81181641 38.80870605 -3.68359375 37.46582031 C-3.00978957 30.04081405 -2.6322035 22.60905043 -2.42944336 15.15673828 C-2.24556677 9.82484099 -1.46698231 5.13443809 0 0 Z " fill="#0D4368" transform="translate(371,142)"/>
<path d="M0 0 C0.66 0 1.32 0 2 0 C2 2.31 2 4.62 2 7 C2.66 6.67 3.32 6.34 4 6 C7.94570021 4.6847666 10.83963556 4.73158939 15 5 C15.99 5.66 16.98 6.32 18 7 C17.67 8.32 17.34 9.64 17 11 C15.43969749 11.22419881 13.8765495 11.42863758 12.3125 11.625 C11.44238281 11.74101562 10.57226562 11.85703125 9.67578125 11.9765625 C7 12 7 12 2 10 C2.33 14.29 2.66 18.58 3 23 C5.97 23.33 8.94 23.66 12 24 C12 24.33 12 24.66 12 25 C10.35425434 25.02688151 8.70838587 25.04634123 7.0625 25.0625 C6.14597656 25.07410156 5.22945313 25.08570313 4.28515625 25.09765625 C2 25 2 25 1 24 C0.00621753 18.65581314 -0.12291842 13.48621475 -0.0625 8.0625 C-0.05798828 7.28326172 -0.05347656 6.50402344 -0.04882812 5.70117188 C-0.03716908 3.80074732 -0.01923877 1.90036294 0 0 Z M6 7 C6.33 7.99 6.66 8.98 7 10 C9.64 10 12.28 10 15 10 C14.67 8.68 14.34 7.36 14 6 C9.85906302 5.79029441 9.85906302 5.79029441 6 7 Z " fill="#185A80" transform="translate(261,191)"/>
<path d="M0 0 C9.24 0 18.48 0 28 0 C28 1.32 28 2.64 28 4 C8.03189066 4.3690205 8.03189066 4.3690205 -1 2 C-0.67 1.34 -0.34 0.68 0 0 Z " fill="#07618C" transform="translate(279,174)"/>
<path d="M0 0 C0.33 0.66 0.66 1.32 1 2 C0.34 2 -0.32 2 -1 2 C-1 2.99 -1 3.98 -1 5 C-0.34 5 0.32 5 1 5 C1.33 4.34 1.66 3.68 2 3 C3.32 3 4.64 3 6 3 C5.67 4.98 5.34 6.96 5 9 C5.99 9.33 6.98 9.66 8 10 C6.54550599 11.0055761 5.08627557 12.00430435 3.625 13 C2.40683594 13.8353125 2.40683594 13.8353125 1.1640625 14.6875 C-1 16 -1 16 -3 16 C-3.08075665 13.70890403 -3.13907731 11.41700733 -3.1875 9.125 C-3.22230469 7.84882813 -3.25710937 6.57265625 -3.29296875 5.2578125 C-3.19628906 4.18273437 -3.09960938 3.10765625 -3 2 C-2.01 1.34 -1.02 0.68 0 0 Z " fill="#1EA9B7" transform="translate(170,178)"/>
<path d="M0 0 C1.32 0.66 2.64 1.32 4 2 C2.35 5.3 0.7 8.6 -1 12 C-1.99 12 -2.98 12 -4 12 C-4 10.68 -4 9.36 -4 8 C-3.34 8 -2.68 8 -2 8 C-2 7.34 -2 6.68 -2 6 C-2.99 5.67 -3.98 5.34 -5 5 C-5 3.68 -5 2.36 -5 1 C-12.25227568 3.85700112 -12.25227568 3.85700112 -18 9 C-17.0717492 5.65829712 -16.07068171 4.06538058 -13.5 1.6875 C-8.93998587 -0.51107824 -4.98860331 -0.7079536 0 0 Z " fill="#125580" transform="translate(311,156)"/>
<path d="M0 0 C4.46839215 -0.21278058 7.82262526 0.40861915 12 2 C8.56861368 4.79338987 4.81217239 6.77735487 0.875 8.75 C-0.07439453 9.24306641 -0.07439453 9.24306641 -1.04296875 9.74609375 C-2.66439906 10.56197269 -4.33012128 11.28852285 -6 12 C-6.66 11.67 -7.32 11.34 -8 11 C-7.67 10.01 -7.34 9.02 -7 8 C-3.9375 6.8125 -3.9375 6.8125 -1 6 C-0.67 4.02 -0.34 2.04 0 0 Z " fill="#094570" transform="translate(257,322)"/>
<path d="M0 0 C0.33 0 0.66 0 1 0 C1.0501123 0.92522461 1.10022461 1.85044922 1.15185547 2.80371094 C2.31381243 25.39217877 2.31381243 25.39217877 4.39013672 47.90917969 C4.93043901 52.65122914 5.07492847 57.23668993 5 62 C4.67 62 4.34 62 4 62 C3.91959473 61.3294458 3.83918945 60.6588916 3.75634766 59.96801758 C3.38627056 56.91527749 3.00574201 53.86392751 2.625 50.8125 C2.49867188 49.75740234 2.37234375 48.70230469 2.2421875 47.61523438 C2.11328125 46.59365234 1.984375 45.57207031 1.8515625 44.51953125 C1.73635254 43.58214111 1.62114258 42.64475098 1.50244141 41.67895508 C1.08492123 38.95515228 1.08492123 38.95515228 -0.07641602 36.37182617 C-1.19587693 33.4969748 -0.77509026 31.44753738 -0.29736328 28.453125 C0.34296956 23.17064194 0.1004495 17.81292947 0.0625 12.5 C0.05798828 11.29601562 0.05347656 10.09203125 0.04882812 8.8515625 C0.0371195 5.90098927 0.02071995 2.95052141 0 0 Z " fill="#44CBBA" transform="translate(153,132)"/>
<path d="M0 0 C3.99500618 1.3697164 6.80009492 3.25722422 10 6 C7.33333333 7.33333333 4.66666667 8.66666667 2 10 C2 9.34 2 8.68 2 8 C1.34 8 0.68 8 0 8 C0 8.99 0 9.98 0 11 C-1.65 11.33 -3.3 11.66 -5 12 C-5 11.34 -5 10.68 -5 10 C-3 8.375 -3 8.375 -1 7 C-2.32 6.34 -3.64 5.68 -5 5 C-3.35 3.35 -1.7 1.7 0 0 Z " fill="#34B8BC" transform="translate(249,67)"/>
<path d="M0 0 C0.66 0.33 1.32 0.66 2 1 C-3.14285714 6.57142857 -3.14285714 6.57142857 -7 7 C-7 6.34 -7 5.68 -7 5 C-7.886875 5.33 -8.77375 5.66 -9.6875 6 C-12.70923347 6.91222143 -14.88373706 7.18330958 -18 7 C-18 7.66 -18 8.32 -18 9 C-19.093125 9.309375 -20.18625 9.61875 -21.3125 9.9375 C-23.55407994 10.58337897 -25.7869351 11.2623117 -28 12 C-30.3406065 11.72230092 -32.67624308 11.39460023 -35 11 C-32.00914498 9.3745164 -29.15877279 8.41833226 -25.859375 7.59765625 C-24.37630859 7.22157227 -24.37630859 7.22157227 -22.86328125 6.83789062 C-20.80338886 6.32485595 -18.74349308 5.8118349 -16.68359375 5.29882812 C-12.14774701 4.148688 -7.74345359 2.9752323 -3.390625 1.24609375 C-2.27171875 0.83488281 -1.1528125 0.42367187 0 0 Z " fill="#44CAB9" transform="translate(199,94)"/>
<path d="M0 0 C0.66 0.33 1.32 0.66 2 1 C1.38125 1.185625 0.7625 1.37125 0.125 1.5625 C-3.09442916 3.74034913 -3.27438296 6.30594962 -4 10 C-3.67 10.66 -3.34 11.32 -3 12 C-3.99 12 -4.98 12 -6 12 C-6 11.34 -6 10.68 -6 10 C-6.66 10 -7.32 10 -8 10 C-8 9.34 -8 8.68 -8 8 C-8.66 8.66 -9.32 9.32 -10 10 C-13.17625614 11.81500351 -16.52266426 12.89357499 -20 14 C-19.44845652 10.33801893 -19.44845652 10.33801893 -17.46533203 8.84326172 C-16.81935059 8.54178223 -16.17336914 8.24030273 -15.5078125 7.9296875 C-14.80269531 7.59066406 -14.09757812 7.25164062 -13.37109375 6.90234375 C-12.62988281 6.56332031 -11.88867188 6.22429687 -11.125 5.875 C-9.66853787 5.18644409 -8.21278105 4.49639386 -6.7578125 3.8046875 C-6.1095752 3.50546387 -5.46133789 3.20624023 -4.79345703 2.89794922 C-2.74080198 1.91639183 -2.74080198 1.91639183 0 0 Z " fill="#0A486E" transform="translate(275,292)"/>
<path d="M0 0 C2.9719385 1.12451727 5.33440687 2.22293791 8 4 C8.51171875 7.0390625 8.51171875 7.0390625 8.6875 10.625 C8.78611328 12.40777344 8.78611328 12.40777344 8.88671875 14.2265625 C8.92410156 15.14179688 8.96148437 16.05703125 9 17 C8.34 17.33 7.68 17.66 7 18 C4.5249829 16.88568235 2.32116581 15.41849022 0 14 C0 13.67 0 13.34 0 13 C3.465 12.505 3.465 12.505 7 12 C5.0745356 9.7763932 5.0745356 9.7763932 2 9 C2.04125 8.2575 2.0825 7.515 2.125 6.75 C1.99601866 3.91241048 1.42948778 2.41226062 0 0 Z " fill="#27C7BD" transform="translate(246,176)"/>
<path d="M0 0 C5.23536064 2.83582035 10.70867728 5.82014021 15 10 C15 10.99 15 11.98 15 13 C15.66 13.33 16.32 13.66 17 14 C15 16 15 16 12.375 16.125 C11.59125 16.08375 10.8075 16.0425 10 16 C10 15.34 10 14.68 10 14 C10.99 14 11.98 14 13 14 C13 13.34 13 12.68 13 12 C12.01 12.33 11.02 12.66 10 13 C8.68 11.02 7.36 9.04 6 7 C5.01 7.495 5.01 7.495 4 8 C4 7.34 4 6.68 4 6 C3.34 5.67 2.68 5.34 2 5 C1.27840576 3.35636866 0.60648579 1.68949614 0 0 Z " fill="#20A4AF" transform="translate(207,280)"/>
<path d="M0 0 C2.375 -0.1875 2.375 -0.1875 5 0 C5.66 0.99 6.32 1.98 7 3 C7.99 3 8.98 3 10 3 C10 3.66 10 4.32 10 5 C12.27399422 5.73092672 13.65351906 6.08662023 16 5.5 C18.34648094 4.91337977 19.72600578 5.26907328 22 6 C22 9 22 9 21 11 C12.72916457 9.34897772 6.46916125 6.47282622 0 1 C0 0.67 0 0.34 0 0 Z " fill="#139CB1" transform="translate(202,307)"/>
<path d="M0 0 C0.66 1.32 1.32 2.64 2 4 C1.54625 4.391875 1.0925 4.78375 0.625 5.1875 C-1.27642919 7.30832487 -2.06204028 9.33042235 -3 12 C-4.65 11.67 -6.3 11.34 -8 11 C-8.33 10.01 -8.66 9.02 -9 8 C-6.14723863 5.06799526 -3.34920216 2.35684596 0 0 Z " fill="#1FB6B8" transform="translate(185,188)"/>
<path d="M0 0 C2.78428508 1.45670835 5.41783043 3.11806917 8.0625 4.8125 C8.76955078 5.25142578 9.47660156 5.69035156 10.20507812 6.14257812 C13.87690371 8.46289608 17.07475707 10.7404436 20 14 C18.35 14 16.7 14 15 14 C15 13.01 15 12.02 15 11 C14.319375 10.7525 13.63875 10.505 12.9375 10.25 C9.43134917 8.75802092 6.28379632 6.93164489 3 5 C3 4.34 3 3.68 3 3 C1.6078125 3.061875 1.6078125 3.061875 0.1875 3.125 C-3 3 -3 3 -6 1 C-6 1.66 -6 2.32 -6 3 C-7.32 2.67 -8.64 2.34 -10 2 C-6.16386045 -0.74009968 -4.50156463 -1.4176198 0 0 Z " fill="#3EC6B6" transform="translate(214,154)"/>
<path d="M0 0 C2.46948242 0.93481445 2.46948242 0.93481445 5 3 C5.7371735 6.00340946 5.5806505 8.96666707 5.48828125 12.04296875 C5.48120651 12.9265657 5.47413177 13.81016266 5.46684265 14.72053528 C5.43884526 17.54371691 5.3760987 20.36491759 5.3125 23.1875 C5.28742396 25.10088282 5.26460958 27.01429672 5.24414062 28.92773438 C5.18900123 33.61925327 5.1026932 38.30929077 5 43 C4.67 43 4.34 43 4 43 C3.505 25.675 3.505 25.675 3 8 C2.34 7.67 1.68 7.34 1 7 C0.59270772 4.67843403 0.25561323 2.3431213 0 0 Z " fill="#27A7B0" transform="translate(239,191)"/>
<path d="M0 0 C0.33 0 0.66 0 1 0 C1 5.28 1 10.56 1 16 C-3.88021201 15.18663133 -5.9117976 14.77939233 -9.875 12.4375 C-10.65617188 11.98246094 -11.43734375 11.52742188 -12.2421875 11.05859375 C-12.82226562 10.70925781 -13.40234375 10.35992187 -14 10 C-14 9.67 -14 9.34 -14 9 C-10.535 8.505 -10.535 8.505 -7 8 C-7.33 8.99 -7.66 9.98 -8 11 C-7.030625 10.979375 -6.06125 10.95875 -5.0625 10.9375 C-2 11 -2 11 -1 12 C-0.67 8.04 -0.34 4.08 0 0 Z " fill="#117CA4" transform="translate(249,317)"/>
<path d="M0 0 C6.6 0 13.2 0 20 0 C20 0.66 20 1.32 20 2 C21.32 2.33 22.64 2.66 24 3 C21 4 21 4 17.75 3.5 C14.03334924 2.81084348 14.03334924 2.81084348 10.5 3.625 C5.99514723 4.1076628 3.982267 3.03176888 0 1 C0 0.67 0 0.34 0 0 Z " fill="#0D618A" transform="translate(343,108)"/>
<path d="M0 0 C4.56268006 3.72463679 8.42588045 7.54491971 12.22265625 12.0390625 C14.5123311 14.56525321 17.03963051 16.66854444 19.71484375 18.7734375 C20.13894531 19.17820312 20.56304687 19.58296875 21 20 C21 20.66 21 21.32 21 22 C18.12333727 20.66938508 15.78863364 19.17712023 13.375 17.125 C12.78460938 16.63257813 12.19421875 16.14015625 11.5859375 15.6328125 C10 14 10 14 9.046875 12.0625 C7.72678223 9.46172021 5.9918127 7.87041843 3.875 5.875 C2.54605277 4.62172237 1.24452827 3.33714433 0 2 C0 1.34 0 0.68 0 0 Z " fill="#2DAFAC" transform="translate(185,259)"/>
<path d="M0 0 C0.33 0.66 0.66 1.32 1 2 C5.95 1.67 10.9 1.34 16 1 C16 2.32 16 3.64 16 5 C13.05549278 5.98150241 11.06481021 6.1613058 8 6 C7.67 5.67 7.34 5.34 7 5 C4.67182036 4.63239269 2.3381615 4.29758419 0 4 C0 2.68 0 1.36 0 0 Z " fill="#12B6C6" transform="translate(203,217)"/>
<path d="M0 0 C2.31890817 1.09213094 4.62949748 2.19775048 6.9375 3.3125 C7.59685547 3.62123047 8.25621094 3.92996094 8.93554688 4.24804688 C10.66276021 5.08950978 12.3360527 6.03947665 14 7 C14.33 7.99 14.66 8.98 15 10 C15.99 10.66 16.98 11.32 18 12 C15.6875 12.625 15.6875 12.625 13 13 C12.01 12.34 11.02 11.68 10 11 C10 10.01 10 9.02 10 8 C7.0173094 6.47551369 4.181798 5.06059933 1 4 C1.33 3.34 1.66 2.68 2 2 C1.34 2 0.68 2 0 2 C0 1.34 0 0.68 0 0 Z " fill="#0E95AE" transform="translate(222,291)"/>
<path d="M0 0 C1.98 0.495 1.98 0.495 4 1 C4.042721 2.66611905 4.04063832 4.33382885 4 6 C3.67 6.33 3.34 6.66 3 7 C2.76712992 8.68183948 2.58735834 10.3712416 2.4375 12.0625 C2.31181641 13.44115234 2.31181641 13.44115234 2.18359375 14.84765625 C2.12300781 15.55792969 2.06242188 16.26820313 2 17 C1.34 17 0.68 17 0 17 C-1.69632976 11.69896951 -1.25840804 6.34823415 0 1 C0 0.67 0 0.34 0 0 Z " fill="#14BDC4" transform="translate(215,198)"/>
<path d="M0 0 C1.94448608 1.62648702 2.90179707 2.59819258 3.51171875 5.09375 C3.56972656 5.8878125 3.62773437 6.681875 3.6875 7.5 C3.75195312 8.37398437 3.81640625 9.24796875 3.8828125 10.1484375 C4.07264666 14.7677353 4.07908249 19.3780676 4 24 C0.0150338 17.11839871 -0.36380287 7.82176167 0 0 Z " fill="#3CCDBB" transform="translate(131,178)"/>
<path d="M0 0 C0.66 0 1.32 0 2 0 C2 3.96 2 7.92 2 12 C1.34 12 0.68 12 0 12 C0 15.63 0 19.26 0 23 C-0.66 23 -1.32 23 -2 23 C-2.33 23.66 -2.66 24.32 -3 25 C-2.10570912 16.65328509 -1.05248577 8.32792142 0 0 Z " fill="#13496D" transform="translate(343,180)"/>
<path d="M0 0 C3.79478926 1.11464695 7.58521868 2.24345392 11.375 3.375 C12.99535156 3.85066406 12.99535156 3.85066406 14.6484375 4.3359375 C16.1953125 4.8 16.1953125 4.8 17.7734375 5.2734375 C18.72653809 5.55622559 19.67963867 5.83901367 20.66162109 6.13037109 C23 7 23 7 25 9 C19.555 8.505 19.555 8.505 14 8 C14 7.34 14 6.68 14 6 C13.01 6.33 12.02 6.66 11 7 C11 6.34 11 5.68 11 5 C10.34 5 9.68 5 9 5 C8.34 5.66 7.68 6.32 7 7 C6.67 6.01 6.34 5.02 6 4 C2.99152582 2.77479736 2.99152582 2.77479736 0 2 C0 1.34 0 0.68 0 0 Z " fill="#186C8A" transform="translate(306,96)"/>
<path d="M0 0 C0.66 0 1.32 0 2 0 C2 0.99 2 1.98 2 3 C2.66 3.33 3.32 3.66 4 4 C5.5157861 9.37415073 4.69927585 14.55640643 4 20 C3.67 20 3.34 20 3 20 C3 16.37 3 12.74 3 9 C2.34 8.67 1.68 8.34 1 8 C0.34 7.34 -0.32 6.68 -1 6 C-1 3 -1 3 0 0 Z " fill="#084975" transform="translate(316,188)"/>
<path d="M0 0 C5.75 3.625 5.75 3.625 8 7 C8.39013716 8.9896995 8.73202649 10.99019869 9 13 C8.34 13 7.68 13 7 13 C7 11.35 7 9.7 7 8 C5.35 8.33 3.7 8.66 2 9 C-0.29013653 5.5647952 -0.17842973 4.014669 0 0 Z " fill="#0E4B73" transform="translate(330,157)"/>
<path d="M0 0 C0.99 0.66 1.98 1.32 3 2 C2.67 3.32 2.34 4.64 2 6 C0.37585622 6.19477739 -1.24936423 6.38059458 -2.875 6.5625 C-3.77992188 6.66691406 -4.68484375 6.77132812 -5.6171875 6.87890625 C-8 7 -8 7 -10 6 C-10 4.35 -10 2.7 -10 1 C-6.87293041 -0.5635348 -3.42017557 -0.39958487 0 0 Z M-9 2 C-8.67 2.99 -8.34 3.98 -8 5 C-5.36 5 -2.72 5 0 5 C-0.33 3.68 -0.66 2.36 -1 1 C-5.14093698 0.79029441 -5.14093698 0.79029441 -9 2 Z " fill="#0E4F6E" transform="translate(276,196)"/>
<path d="M0 0 C0.33 0 0.66 0 1 0 C1.33 3.3 1.66 6.6 2 10 C2.66 10 3.32 10 4 10 C4 7.69 4 5.38 4 3 C4.33 3 4.66 3 5 3 C5.33 6.3 5.66 9.6 6 13 C2.85069107 14.04976964 0.61185544 14.10131595 -2.6875 14.0625 C-3.68136719 14.05347656 -4.67523438 14.04445312 -5.69921875 14.03515625 C-6.83810547 14.01775391 -6.83810547 14.01775391 -8 14 C-8 13.67 -8 13.34 -8 13 C-4.7 13 -1.4 13 2 13 C1.67 12.154375 1.34 11.30875 1 10.4375 C-0.06105954 6.79010784 -0.15109013 3.77725336 0 0 Z " fill="#30AAB2" transform="translate(213,205)"/>
<path d="M0 0 C0.66 0.33 1.32 0.66 2 1 C-0.85211349 4.01056424 -3.2436708 6.25599001 -7 8 C-7.33 8.66 -7.66 9.32 -8 10 C-10.32156597 10.40729228 -12.6568787 10.74438677 -15 11 C-13.1875 9 -13.1875 9 -11 7 C-10.01 7 -9.02 7 -8 7 C-8 6.34 -8 5.68 -8 5 C-6.3203125 3.67578125 -6.3203125 3.67578125 -4.125 2.3125 C-3.40570313 1.85488281 -2.68640625 1.39726563 -1.9453125 0.92578125 C-0.98238281 0.46751953 -0.98238281 0.46751953 0 0 Z " fill="#6FCFCD" transform="translate(243,71)"/>
<path d="M0 0 C-0.33 1.32 -0.66 2.64 -1 4 C-0.34 4 0.32 4 1 4 C0.67 5.65 0.34 7.3 0 9 C-1.11375 7.7934375 -1.11375 7.7934375 -2.25 6.5625 C-6.75030049 2.71441697 -12.33545068 3.10082531 -18 3 C-18 2.67 -18 2.34 -18 2 C-16.64455078 1.90912109 -16.64455078 1.90912109 -15.26171875 1.81640625 C-13.49248047 1.69072266 -13.49248047 1.69072266 -11.6875 1.5625 C-9.92986328 1.44068359 -9.92986328 1.44068359 -8.13671875 1.31640625 C-5.29407556 1.02966391 -2.82033039 0 0 0 Z " fill="#0B517D" transform="translate(315,169)"/>
<path d="M0 0 C3.3 0.33 6.6 0.66 10 1 C8.68 2.32 7.36 3.64 6 5 C3.69 4.34 1.38 3.68 -1 3 C-1 3.66 -1 4.32 -1 5 C-2.65 5 -4.3 5 -6 5 C-5.67 4.01 -5.34 3.02 -5 2 C-3.35 2 -1.7 2 0 2 C0 1.34 0 0.68 0 0 Z " fill="#26DAC5" transform="translate(152,106)"/>
<path d="M0 0 C0.66 0.33 1.32 0.66 2 1 C3.66392045 1.67349161 5.33032028 2.3409159 7 3 C2.76486783 6.96189783 -1.547001 8.43181728 -7 10 C-6.67 9.01 -6.34 8.02 -6 7 C-4.02 6.67 -2.04 6.34 0 6 C-0.185625 5.38125 -0.37125 4.7625 -0.5625 4.125 C-1 2 -1 2 0 0 Z " fill="#0B3D63" transform="translate(276,314)"/>
<path d="M0 0 C1.65 1.32 3.3 2.64 5 4 C4.67 4.99 4.34 5.98 4 7 C1.69 7.33 -0.62 7.66 -3 8 C-3.33 7.01 -3.66 6.02 -4 5 C-3.67 4.34 -3.34 3.68 -3 3 C-2.34 3 -1.68 3 -1 3 C-0.67 2.01 -0.34 1.02 0 0 Z " fill="#17C1BA" transform="translate(188,264)"/>
<path d="M0 0 C0.66 0 1.32 0 2 0 C2.33 0.99 2.66 1.98 3 3 C1.78515625 4.82421875 1.78515625 4.82421875 0.0625 6.6875 C-0.50339844 7.31011719 -1.06929688 7.93273437 -1.65234375 8.57421875 C-2.09707031 9.04472656 -2.54179687 9.51523438 -3 10 C-4.4606285 7.35261084 -5 6.10551666 -5 3 C-2.50907189 1.75453595 -1.58919267 2.2232422 1 3 C0.67 2.01 0.34 1.02 0 0 Z " fill="#0D4979" transform="translate(332,178)"/>
<path d="M0 0 C3.36525621 0.46417327 5.40608501 1.86928411 8 4 C5.33333333 5.33333333 2.66666667 6.66666667 0 8 C-0.38063221 5.6739143 -0.71269945 3.33944736 -1 1 C-0.67 0.67 -0.34 0.34 0 0 Z " fill="#2A879A" transform="translate(251,69)"/>
<path d="M0 0 C2 1 2 1 3 2 C4.34747084 2.23075082 5.70377565 2.41153063 7.0625 2.5625 C8.361875 2.706875 9.66125 2.85125 11 3 C11 3.33 11 3.66 11 4 C9.93072266 4.09087891 9.93072266 4.09087891 8.83984375 4.18359375 C3.53039712 4.64808101 -1.733409 5.18075251 -7 6 C-6.67 5.01 -6.34 4.02 -6 3 C-4.02 2.67 -2.04 2.34 0 2 C0 1.34 0 0.68 0 0 Z " fill="#08597F" transform="translate(277,174)"/>
<path d="M0 0 C0.33 0 0.66 0 1 0 C1.33 4.29 1.66 8.58 2 13 C1.01 13.495 1.01 13.495 0 14 C-2.4750171 12.88568235 -4.67883419 11.41849022 -7 10 C-7 9.67 -7 9.34 -7 9 C-3.535 8.505 -3.535 8.505 0 8 C0 5.36 0 2.72 0 0 Z " fill="#2CBCB9" transform="translate(253,180)"/>
<path d="M0 0 C0.33 0 0.66 0 1 0 C1.5625 3.125 1.5625 3.125 1 7 C-1.74335318 9.46527449 -4.76486756 11.2476366 -8 13 C-8.33 11.68 -8.66 10.36 -9 9 C-8.34 9 -7.68 9 -7 9 C-7 8.34 -7 7.68 -7 7 C-5.02 7 -3.04 7 -1 7 C-0.67 4.69 -0.34 2.38 0 0 Z " fill="#22B2BB" transform="translate(249,91)"/>
<path d="M0 0 C0 0.66 0 1.32 0 2 C0.66 2 1.32 2 2 2 C1.67 2.99 1.34 3.98 1 5 C-0.65 5 -2.3 5 -4 5 C-4 4.34 -4 3.68 -4 3 C-4.66 3 -5.32 3 -6 3 C-6.33 2.01 -6.66 1.02 -7 0 C-4.3333581 -1.33332095 -2.83319697 -0.67102033 0 0 Z " fill="#057595" transform="translate(288,91)"/>
<path d="M0 0 C-0.57344937 2.86724686 -0.8614515 3.8614515 -3 6 C-5.625 6.625 -5.625 6.625 -8 7 C-8 5.35 -8 3.7 -8 2 C-2.25 0 -2.25 0 0 0 Z " fill="#043B67" transform="translate(320,288)"/>
<path d="M0 0 C0.99 0.33 1.98 0.66 3 1 C2.01 1.99 1.02 2.98 0 4 C0 2.68 0 1.36 0 0 Z M-3 3 C-2.34 3.33 -1.68 3.66 -1 4 C-2.65 5.65 -4.3 7.3 -6 9 C-5.42655063 6.13275314 -5.1385485 5.1385485 -3 3 Z M-8 9 C-7.01 9.33 -6.02 9.66 -5 10 C-5.99 11.485 -5.99 11.485 -7 13 C-7.99 12.67 -8.98 12.34 -10 12 C-9.34 11.01 -8.68 10.02 -8 9 Z " fill="#044574" transform="translate(317,258)"/>
<path d="M0 0 C0.33 0 0.66 0 1 0 C1.33 4.95 1.66 9.9 2 15 C4.31 15.33 6.62 15.66 9 16 C9.33 16.66 9.66 17.32 10 18 C6.7 18 3.4 18 0 18 C0 12.06 0 6.12 0 0 Z " fill="#157FBD" transform="translate(234,217)"/>
<path d="M0 0 C1.32 0.33 2.64 0.66 4 1 C3.42415568 3.38564077 2.77772405 5.66682784 2 8 C1.01 7.67 0.02 7.34 -1 7 C-1.8125 5.125 -1.8125 5.125 -2 3 C-1.34 2.01 -0.68 1.02 0 0 Z " fill="#20BBBE" transform="translate(202,195)"/>
<path d="M0 0 C4.95769796 -0.29162929 8.02806853 -0.12940055 12 3 C12 3.66 12 4.32 12 5 C8.37 4.34 4.74 3.68 1 3 C0.67 2.01 0.34 1.02 0 0 Z " fill="#19CAC3" transform="translate(205,192)"/>
<path d="M0 0 C0.66 0.33 1.32 0.66 2 1 C0 4 0 4 -3 5 C-3 6.32 -3 7.64 -3 9 C-5.31 8.67 -7.62 8.34 -10 8 C-6.97727468 4.74475735 -3.74281699 2.38179263 0 0 Z " fill="#31BEB8" transform="translate(196,161)"/>
<path d="M0 0 C-5.14285714 5.57142857 -5.14285714 5.57142857 -9 6 C-8.67 4.35 -8.34 2.7 -8 1 C-2.25 -1.125 -2.25 -1.125 0 0 Z " fill="#36C7BC" transform="translate(201,95)"/>
<path d="M0 0 C0.598125 0.33 1.19625 0.66 1.8125 1 C4.05386471 2.20787988 4.05386471 2.20787988 7 2 C9.125 2.3125 9.125 2.3125 11 3 C11.33 3.99 11.66 4.98 12 6 C11.01 6 10.02 6 9 6 C8.67 6.66 8.34 7.32 8 8 C6.66372225 6.85760183 5.33104612 5.71098945 4 4.5625 C3.2575 3.92441406 2.515 3.28632813 1.75 2.62890625 C1.1725 2.09136719 0.595 1.55382812 0 1 C0 0.67 0 0.34 0 0 Z " fill="#27AFB4" transform="translate(178,288)"/>
<path d="M0 0 C1.42944945 2.35438733 2.08661261 3.48032433 1.625 6.25 C1.41875 6.8275 1.2125 7.405 1 8 C0.34 7.67 -0.32 7.34 -1 7 C-1.33 7.66 -1.66 8.32 -2 9 C-3.36741555 6.74778616 -4.04066478 5.47442242 -3.8125 2.8125 C-3.544375 2.214375 -3.27625 1.61625 -3 1 C-2.01 0.67 -1.02 0.34 0 0 Z " fill="#24D5C4" transform="translate(141,208)"/>
<path d="M0 0 C0.66 0 1.32 0 2 0 C2 0.66 2 1.32 2 2 C3.98 1.67 5.96 1.34 8 1 C6.67408323 3.65183353 5.13437549 4.25136473 2.5625 5.6875 C1.75941406 6.14511719 0.95632812 6.60273438 0.12890625 7.07421875 C-0.57363281 7.37972656 -1.27617187 7.68523437 -2 8 C-2.66 7.67 -3.32 7.34 -4 7 C-3.01 6.67 -2.02 6.34 -1 6 C-0.67 4.02 -0.34 2.04 0 0 Z " fill="#26BAB8" transform="translate(188,175)"/>
<path d="M0 0 C4.79077635 -0.28773432 8.00617556 0.55830025 12.375 2.5 C13.43460937 2.9640625 14.49421875 3.428125 15.5859375 3.90625 C16.38257813 4.2671875 17.17921875 4.628125 18 5 C13.9154674 6.72251754 10.63026304 5.07280563 6.75 3.5625 C6.1003125 3.31951172 5.450625 3.07652344 4.78125 2.82617188 C3.18383183 2.22714006 1.59139406 1.61485679 0 1 C0 0.67 0 0.34 0 0 Z " fill="#1B6B87" transform="translate(290,117)"/>
<path d="M0 0 C0.66 0.33 1.32 0.66 2 1 C1.67 1.99 1.34 2.98 1 4 C0.01 4 -0.98 4 -2 4 C-2 4.66 -2 5.32 -2 6 C-5.33333333 7.33333333 -8.66666667 8.66666667 -12 10 C-8.29909479 6.0747975 -4.45040344 3.05419844 0 0 Z " fill="#114465" transform="translate(289,282)"/>
<path d="M0 0 C0.99 0.99 1.98 1.98 3 3 C2.34 4.32 1.68 5.64 1 7 C-0.9375 6.6875 -0.9375 6.6875 -3 6 C-3.33 5.01 -3.66 4.02 -4 3 C-2.68 2.01 -1.36 1.02 0 0 Z " fill="#0EC0C5" transform="translate(180,193)"/>
<path d="M0 0 C2.475 0.99 2.475 0.99 5 2 C5.33 1.34 5.66 0.68 6 0 C6.99 0.33 7.98 0.66 9 1 C11.14255793 0.61067144 11.14255793 0.61067144 13 0 C12.67 1.32 12.34 2.64 12 4 C10.39504433 3.88557539 8.79101881 3.75805306 7.1875 3.625 C6.29417969 3.55539063 5.40085937 3.48578125 4.48046875 3.4140625 C2 3 2 3 -1 1 C-0.67 0.67 -0.34 0.34 0 0 Z " fill="#056C8F" transform="translate(306,120)"/>
<path d="M0 0 C1.9375 0.375 1.9375 0.375 4 1 C4.33 1.66 4.66 2.32 5 3 C5.99 2.67 6.98 2.34 8 2 C8 2.99 8 3.98 8 5 C5.69 5.33 3.38 5.66 1 6 C0.67 4.02 0.34 2.04 0 0 Z " fill="#0588AD" transform="translate(234,320)"/>
<path d="M0 0 C1.4606285 2.64738916 2 3.89448334 2 7 C1.01 7 0.02 7 -1 7 C-1.66 7.66 -2.32 8.32 -3 9 C-3.1875 5.625 -3.1875 5.625 -3 2 C-2.01 1.34 -1.02 0.68 0 0 Z " fill="#044B76" transform="translate(253,304)"/>
<path d="M0 0 C3.63 0 7.26 0 11 0 C11 0.99 11 1.98 11 3 C5.04296875 3.29296875 5.04296875 3.29296875 3 3 C2.01 2.01 1.02 1.02 0 0 Z " fill="#18A3B3" transform="translate(197,304)"/>
<path d="M0 0 C4 2 4 2 4.75 4.125 C4.8325 4.74375 4.915 5.3625 5 6 C4.01 6.33 3.02 6.66 2 7 C1.67 7.66 1.34 8.32 1 9 C0.67 6.03 0.34 3.06 0 0 Z " fill="#065C8D" transform="translate(346,127)"/>
<path d="M0 0 C2.97 0.495 2.97 0.495 6 1 C6 1.66 6 2.32 6 3 C6.66 3.33 7.32 3.66 8 4 C6 6 6 6 3.375 6.125 C2.59125 6.08375 1.8075 6.0425 1 6 C1 5.34 1 4.68 1 4 C1.99 4 2.98 4 4 4 C4 3.34 4 2.68 4 2 C3.01 2.33 2.02 2.66 1 3 C0.67 2.01 0.34 1.02 0 0 Z " fill="#10A4B7" transform="translate(216,290)"/>
<path d="M0 0 C0.33 0.66 0.66 1.32 1 2 C1.99 2 2.98 2 4 2 C4.95685425 6.21015871 5.13181214 8.25712373 3 12 C2.49440092 10.56445975 1.9957251 9.1264798 1.5 7.6875 C1.2215625 6.88699219 0.943125 6.08648437 0.65625 5.26171875 C0 3 0 3 0 0 Z " fill="#3BC8B8" transform="translate(138,218)"/>
<path d="M0 0 C1.98 0.99 3.96 1.98 6 3 C6 3.66 6 4.32 6 5 C7.32 5.33 8.64 5.66 10 6 C9.01 6.495 9.01 6.495 8 7 C8 7.66 8 8.32 8 9 C7.01 9 6.02 9 5 9 C5 7.35 5 5.7 5 4 C3.35 3.67 1.7 3.34 0 3 C0 2.01 0 1.02 0 0 Z " fill="#549CAD" transform="translate(259,73)"/>
<path d="M0 0 C0.66 0 1.32 0 2 0 C2 0.99 2 1.98 2 3 C2.99 3.33 3.98 3.66 5 4 C4.34 4.66 3.68 5.32 3 6 C0.375 5.625 0.375 5.625 -2 5 C-1.125 1.125 -1.125 1.125 0 0 Z " fill="#0C7491" transform="translate(257,73)"/>
<path d="M0 0 C3.96 1.98 7.92 3.96 12 6 C7.69620204 7.07594949 7.50337388 7.03421709 4 5 C3.01 4.67 2.02 4.34 1 4 C1.33 3.34 1.66 2.68 2 2 C1.34 2 0.68 2 0 2 C0 1.34 0 0.68 0 0 Z " fill="#1E94A6" transform="translate(222,291)"/>
<path d="M0 0 C0.66 0.66 1.32 1.32 2 2 C2.804375 2.7425 2.804375 2.7425 3.625 3.5 C5 5 5 5 5 7 C2.50935112 7.68707555 0.62113708 8 -2 8 C-1.34 5.36 -0.68 2.72 0 0 Z " fill="#14BABA" transform="translate(194,270)"/>
<path d="M0 0 C0 0.99 0 1.98 0 3 C-0.99 3.495 -0.99 3.495 -2 4 C-2.99 5.485 -2.99 5.485 -4 7 C-5.32 6.67 -6.64 6.34 -8 6 C-8 5.34 -8 4.68 -8 4 C-2.58823529 0 -2.58823529 0 0 0 Z " fill="#25B3B9" transform="translate(180,173)"/>
<path d="M0 0 C1.98 0 3.96 0 6 0 C6 0.99 6 1.98 6 3 C4.1875 4.0625 4.1875 4.0625 2 5 C1.01 4.67 0.02 4.34 -1 4 C-0.67 2.68 -0.34 1.36 0 0 Z " fill="#0B446B" transform="translate(307,201)"/>
<path d="M0 0 C1.98 0.495 1.98 0.495 4 1 C4.1875 3.375 4.1875 3.375 4 6 C3.01 6.66 2.02 7.32 1 8 C0.34 7.34 -0.32 6.68 -1 6 C-0.625 3.4375 -0.625 3.4375 0 1 C0 0.67 0 0.34 0 0 Z " fill="#23C8CF" transform="translate(215,198)"/>
<path d="M0 0 C4.24223102 -0.3636198 6.58168085 0.4606772 10 3 C10 3.66 10 4.32 10 5 C6.7 4.01 3.4 3.02 0 2 C0 1.34 0 0.68 0 0 Z " fill="#146A8E" transform="translate(279,112)"/>
<path d="M0 0 C0.33 1.32 0.66 2.64 1 4 C-3 4 -3 4 -5 3 C-5.33 3.66 -5.66 4.32 -6 5 C-8 4 -8 4 -9 2 C-5.62902617 0.50178941 -3.79557881 0 0 0 Z " fill="#27D4C4" transform="translate(192,99)"/>
<path d="M0 0 C3.91211733 1.15585285 6.8745041 2.35534962 10 5 C9.01 5 8.02 5 7 5 C6.67 5.66 6.34 6.32 6 7 C5.01 6.67 4.02 6.34 3 6 C3 5.01 3 4.02 3 3 C2.01 2.67 1.02 2.34 0 2 C0 1.34 0 0.68 0 0 Z " fill="#3E8CA4" transform="translate(269,80)"/>
<path d="M0 0 C0.99 0.33 1.98 0.66 3 1 C3.12375 1.969375 3.2475 2.93875 3.375 3.9375 C3.684375 5.4534375 3.684375 5.4534375 4 7 C4.66 7.33 5.32 7.66 6 8 C5.01 9.485 5.01 9.485 4 11 C3.32880451 9.5437455 2.66318193 8.08492133 2 6.625 C1.62875 5.81289062 1.2575 5.00078125 0.875 4.1640625 C0 2 0 2 0 0 Z " fill="#3CC3B6" transform="translate(142,231)"/>
<path d="M0 0 C2.31 0.33 4.62 0.66 7 1 C6.34 2.65 5.68 4.3 5 6 C4.34 6 3.68 6 3 6 C3 5.34 3 4.68 3 4 C2.01 4 1.02 4 0 4 C0 2.68 0 1.36 0 0 Z " fill="#26DBC5" transform="translate(163,104)"/>
<path d="M0 0 C0 1.32 0 2.64 0 4 C-3.26954202 3.43628586 -4.82575883 2.50037734 -7 0 C-3.86650268 -1.04449911 -3.01031744 -0.93423645 0 0 Z " fill="#13738F" transform="translate(257,97)"/>
<path d="M0 0 C-1.76641683 0.6987693 -3.53832664 1.38366583 -5.3125 2.0625 C-6.79169922 2.63677734 -6.79169922 2.63677734 -8.30078125 3.22265625 C-11 4 -11 4 -14 3 C-13 1 -13 1 -11.07421875 0.33203125 C-10.28660156 0.16058594 -9.49898437 -0.01085937 -8.6875 -0.1875 C-7.90761719 -0.36667969 -7.12773437 -0.54585938 -6.32421875 -0.73046875 C-3.90795241 -1.01067443 -2.29757048 -0.74132137 0 0 Z " fill="#38C1BC" transform="translate(216,116)"/>
<path d="M0 0 C2.31 0 4.62 0 7 0 C7 4 7 4 6 6 C5.01 5.67 4.02 5.34 3 5 C3 4.01 3 3.02 3 2 C2.01 2 1.02 2 0 2 C0 1.34 0 0.68 0 0 Z " fill="#069BB4" transform="translate(217,312)"/>
<path d="M0 0 C2.25 -0.25 2.25 -0.25 5 0 C7.3125 1.875 7.3125 1.875 9 4 C9 4.66 9 5.32 9 6 C5.06326356 4.68775452 2.77280706 3.08089673 0 0 Z " fill="#2199A4" transform="translate(202,307)"/>
<path d="M0 0 C0.66 0.33 1.32 0.66 2 1 C0.35 3.64 -1.3 6.28 -3 9 C-4 7 -4 7 -3.1875 3.9375 C-2 1 -2 1 0 0 Z " fill="#0D3B60" transform="translate(343,259)"/>
<path d="M0 0 C0 1.98 0 3.96 0 6 C-1.32 6 -2.64 6 -4 6 C-4 4.35 -4 2.7 -4 1 C-1 0 -1 0 0 0 Z " fill="#06527E" transform="translate(274,209)"/>
<path d="M0 0 C1.32 0.66 2.64 1.32 4 2 C3.67 2.99 3.34 3.98 3 5 C3.66 5.33 4.32 5.66 5 6 C2 6 2 6 -1 5 C-0.67 3.35 -0.34 1.7 0 0 Z " fill="#28D4C8" transform="translate(178,120)"/>
<path d="M0 0 C2.05078125 0.03255208 4.1015625 0.06510417 6.15234375 0.09765625 C3.46678435 2.78321565 0.77613047 3.15815599 -2.84765625 4.09765625 C-2.84765625 0.15051037 -2.84765625 0.15051037 0 0 Z " fill="#16CDC5" transform="translate(207.84765625,113.90234375)"/>
<path d="M0 0 C0.33 0.66 0.66 1.32 1 2 C2.64363134 2.72159424 4.31050386 3.39351421 6 4 C3 6 3 6 0 7 C-0.38133299 5.0085944 -0.71325582 3.00720923 -1 1 C-0.67 0.67 -0.34 0.34 0 0 Z " fill="#0592B1" transform="translate(242,305)"/>
<path d="M0 0 C0.33 0.66 0.66 1.32 1 2 C3.31 2 5.62 2 8 2 C8 2.99 8 3.98 8 5 C5.36 4.67 2.72 4.34 0 4 C0 2.68 0 1.36 0 0 Z " fill="#07A3BB" transform="translate(203,217)"/>
<path d="M0 0 C0.33 0.66 0.66 1.32 1 2 C3.02463255 2.65213292 3.02463255 2.65213292 5 3 C4.67 3.66 4.34 4.32 4 5 C0.9375 5.625 0.9375 5.625 -2 6 C-2 5.01 -2 4.02 -2 3 C-1.34 3 -0.68 3 0 3 C0 2.01 0 1.02 0 0 Z " fill="#0FB6C9" transform="translate(171,177)"/>
<path d="M0 0 C2.31 0 4.62 0 7 0 C6.67 0.99 6.34 1.98 6 3 C3.69 3 1.38 3 -1 3 C-0.67 2.01 -0.34 1.02 0 0 Z " fill="#034DA5" transform="translate(296,174)"/>
<path d="M0 0 C1.98 0 3.96 0 6 0 C6 1.65 6 3.3 6 5 C4.125 4.75 4.125 4.75 2 4 C0.75 1.9375 0.75 1.9375 0 0 Z " fill="#08658B" transform="translate(336,106)"/>
<path d="M0 0 C0.66 0.33 1.32 0.66 2 1 C1.01 2.485 1.01 2.485 0 4 C-3.625 4.6875 -3.625 4.6875 -7 5 C-4.63707344 2.47411298 -3.33537489 1.11179163 0 0 Z " fill="#5AC9C7" transform="translate(235,77)"/>
<path d="M0 0 C3.057952 1.73559438 5.63379989 3.38472619 8 6 C2.25 5.25 2.25 5.25 0 3 C0 2.01 0 1.02 0 0 Z " fill="#2A9CA9" transform="translate(214,285)"/>
<path d="M0 0 C1.32 0.33 2.64 0.66 4 1 C4 2.65 4 4.3 4 6 C3.01 6 2.02 6 1 6 C0.67 4.02 0.34 2.04 0 0 Z " fill="#19BCC2" transform="translate(203,204)"/>
<path d="M0 0 C1.65 0 3.3 0 5 0 C5 0.66 5 1.32 5 2 C1.85069107 3.04976964 -0.38814456 3.10131595 -3.6875 3.0625 C-4.68136719 3.05347656 -5.67523438 3.04445312 -6.69921875 3.03515625 C-7.83810547 3.01775391 -7.83810547 3.01775391 -9 3 C-9 2.67 -9 2.34 -9 2 C-6.03 2 -3.06 2 0 2 C0 1.34 0 0.68 0 0 Z " fill="#034EA0" transform="translate(289,174)"/>
<path d="M0 0 C1.62723299 0.45034123 3.25173664 0.91055354 4.875 1.375 C5.77992188 1.63023438 6.68484375 1.88546875 7.6171875 2.1484375 C10 3 10 3 12 5 C7.24792529 5.43200679 4.21789302 3.98489083 0 2 C0 1.34 0 0.68 0 0 Z " fill="#1C6F87" transform="translate(291,91)"/>
<path d="M0 0 C0.99 0.66 1.98 1.32 3 2 C1.35 3.32 -0.3 4.64 -2 6 C-2.66 5.67 -3.32 5.34 -4 5 C-2.25 1.125 -2.25 1.125 0 0 Z " fill="#15BFBF" transform="translate(246,72)"/>
<path d="M0 0 C0.66 0.33 1.32 0.66 2 1 C0.02 3.31 -1.96 5.62 -4 8 C-4.33 7.01 -4.66 6.02 -5 5 C-4.34 5 -3.68 5 -3 5 C-3 4.01 -3 3.02 -3 2 C-2.01 2 -1.02 2 0 2 C0 1.34 0 0.68 0 0 Z " fill="#0B3956" transform="translate(325,282)"/>
<path d="M0 0 C0.66 0 1.32 0 2 0 C2 0.66 2 1.32 2 2 C2.99 2 3.98 2 5 2 C5.33 2.99 5.66 3.98 6 5 C5.01 5.33 4.02 5.66 3 6 C2.01 5.34 1.02 4.68 0 4 C0 2.68 0 1.36 0 0 Z " fill="#044273" transform="translate(346,240)"/>
<path d="M0 0 C2.18975773 3.28463659 2.99806563 6.20696275 4 10 C3.01 9.67 2.02 9.34 1 9 C0.67 6.03 0.34 3.06 0 0 Z " fill="#3AC1B3" transform="translate(165,221)"/>
<path d="M0 0 C1.32 0.99 2.64 1.98 4 3 C3.67 4.32 3.34 5.64 3 7 C2.01 6.67 1.02 6.34 0 6 C0 4.02 0 2.04 0 0 Z M2 1 C4 2 4 2 4 2 Z " fill="#024B78" transform="translate(340,205)"/>
<path d="M0 0 C1.32 0 2.64 0 4 0 C4 1.32 4 2.64 4 4 C2.02 4 0.04 4 -2 4 C-1.34 2.68 -0.68 1.36 0 0 Z " fill="#045278" transform="translate(303,174)"/>
<path d="M0 0 C0.99 0.66 1.98 1.32 3 2 C2.67 3.65 2.34 5.3 2 7 C0.68 6.34 -0.64 5.68 -2 5 C-1.34 4.34 -0.68 3.68 0 3 C0 2.01 0 1.02 0 0 Z " fill="#24D4C8" transform="translate(163,219)"/>
<path d="M0 0 C2.475 0.99 2.475 0.99 5 2 C4.67 2.99 4.34 3.98 4 5 C2.35 4.67 0.7 4.34 -1 4 C-0.67 2.68 -0.34 1.36 0 0 Z " fill="#1FD5C9" transform="translate(185,120)"/>
<path d="M0 0 C2.97 0.495 2.97 0.495 6 1 C2.55549263 3.29633824 0.06187717 3.54016485 -4 4 C-4.33 3.34 -4.66 2.68 -5 2 C-3.35 2 -1.7 2 0 2 C0 1.34 0 0.68 0 0 Z " fill="#30D7C5" transform="translate(134,108)"/>
<path d="M0 0 C0.99 0.33 1.98 0.66 3 1 C2.67 2.65 2.34 4.3 2 6 C1.34 6 0.68 6 0 6 C-0.38218767 4.34385343 -0.71395102 2.67542976 -1 1 C-0.67 0.67 -0.34 0.34 0 0 Z " fill="#057796" transform="translate(261,96)"/>
</svg>
